:SAMPLES-PER-SECOND 30
:FULLY-SPECIFIED
:DEGREES
137
root  6.47905 39.2979 -38.0909 0.0570622 -59.5427 -4.26263
RightUpLeg  4.67196 -10.0799 -4.36546
RightLeg  16.7889 -18.7858 -6.50276
RightFoot  -13.51 0.216102 16.1809
RightToes  -5.82094e-011 -1.98785e-016 -5.10186e-018
Spine  13.9616 -0.559942 10.3699
Spine1  2.80659 1.62989 -2.125
HEad  -10.4758 41.1216 -16.4994
LeftShoulder1  1.84758 -2.71334 -23.4631
LeftArm  -7.97248 27.7547 -52.9841
LeftForeArm  96.6523 -74.6826 -28.4225
LeftHand  0.045395 0.43836 -1.14617
RightShoulder  3.51809 6.95536 27.6587
RightArm  7.99036 -18.8132 40.3875
RightForeArm  25.8451 47.3499 10.2824
RightHand  -2.41978 7.26374 -22.2518
LeftUpLeg  -12.2449 14.6255 12.1808
LeftLeg  13.5815 8.59055 2.68049
LeftFoot  4.26286 0.849638 -6.41224
LeftToes  -8.4584e-011 5.90861e-011 8.40072e-012
138
root  6.39684 39.2899 -37.7935 0.353086 -59.8279 -4.16385
RightUpLeg  4.93464 -9.51305 -4.64114
RightLeg  16.0893 -19.1618 -6.51738
RightFoot  -13.2992 0.197614 16.7958
RightToes  -5.82094e-011 -1.98785e-016 -5.10186e-018
Spine  14.3134 -0.623747 11.2537
Spine1  1.77972 1.87636 -2.81141
HEad  -10.5098 40.5743 -17.1605
LeftShoulder1  1.87162 -2.88001 -23.0393
LeftArm  -7.06214 27.675 -52.9687
LeftForeArm  91.2903 -73.0908 -25.5446
LeftHand  -0.00664126 0.0631775 0.120315
RightShoulder  3.57292 7.08354 27.7723
RightArm  8.71745 -17.0032 41.0446
RightForeArm  26.5723 46.7065 9.97738
RightHand  -2.37691 7.45539 -21.5546
LeftUpLeg  -13.4512 14.874 11.1738
LeftLeg  17.8145 6.52502 2.6794
LeftFoot  2.27791 0.775183 -6.57624
LeftToes  -8.4584e-011 5.90861e-011 8.40072e-012
139
root  6.29376 39.2943 -37.4248 0.97147 -60.4496 -4.22187
RightUpLeg  5.16594 -8.75034 -4.83472
RightLeg  14.9367 -19.408 -6.4584
RightFoot  -12.7803 0.134445 17.5068
RightToes  -5.82094e-011 -1.98785e-016 -5.10186e-018
Spine  14.4765 -0.700502 12.5325
Spine1  1.12576 2.33618 -4.35084
HEad  -11.2424 40.3568 -18.5585
LeftShoulder1  1.85033 -2.78986 -23.1247
LeftArm  -7.98988 28.3647 -53.1838
LeftForeArm  88.4141 -71.9371 -23.702
LeftHand  -0.0122759 -0.39472 0.388264
RightShoulder  3.6765 7.36078 27.8659
RightArm  9.19237 -15.1099 41.6461
RightForeArm  27.2211 46.8352 9.98039
RightHand  -2.22534 7.59558 -20.0268
LeftUpLeg  -14.8303 14.8842 10.0934
LeftLeg  22.3183 5.6319 2.87111
LeftFoot  -0.271042 0.516631 -5.31866
LeftToes  -8.4584e-011 5.90861e-011 8.40072e-012
140
root  6.13953 39.2409 -36.9653 1.56268 -61.2093 -4.05275
RightUpLeg  4.98042 -8.37601 -5.41893
RightLeg  14.5187 -18.987 -6.42101
RightFoot  -12.6625 0.124048 18.144
RightToes  -5.82094e-011 -1.98785e-016 -5.10186e-018
Spine  14.4971 -0.64179 13.2482
Spine1  0.619484 2.71765 -5.42019
HEad  -12.1412 40.0298 -19.5573
LeftShoulder1  1.80239 -2.56753 -23.4347
LeftArm  -10.1677 30.0507 -52.8637
LeftForeArm  89.6868 -72.9431 -25.4469
LeftHand  0.251826 -1.88188 -3.93195
RightShoulder  3.7277 7.45054 28.0614
RightArm  9.47873 -12.7219 42.2211
RightForeArm  28.5347 46.8532 9.89173
RightHand  -2.07553 7.95539 -18.2367
LeftUpLeg  -15.885 15.5006 8.74583
LeftLeg  25.974 5.17046 3.0813
LeftFoot  -3.58657 0.333759 -4.57582
LeftToes  -8.4584e-011 5.90861e-011 8.40072e-012
141
root  5.92269 39.1687 -36.4071 2.67665 -61.9494 -4.51555
RightUpLeg  5.23111 -8.71443 -6.0233
RightLeg  13.5692 -17.9579 -6.0136
RightFoot  -12.4129 0.0972766 19.3001
RightToes  -5.82094e-011 -1.98785e-016 -5.10186e-018
Spine  14.4678 -0.552928 13.7107
Spine1  0.241486 2.97581 -5.94642
HEad  -13.6976 40.2029 -21.4337
LeftShoulder1  1.62648 -1.90867 -23.8035
LeftArm  -13.7224 32.3651 -52.6707
LeftForeArm  94.7614 -75.4156 -30.55
LeftHand  0.708007 -2.55919 -10.1453
RightShoulder  3.78732 7.58958 28.1751
RightArm  8.87778 -10.8902 42.4097
RightForeArm  29.5637 47.3914 10.0247
RightHand  -1.95719 8.30715 -16.8263
LeftUpLeg  -16.7248 17.7499 7.42693
LeftLeg  29.3084 5.92727 3.94731
LeftFoot  -7.48143 0.188361 -4.41927
LeftToes  -8.4584e-011 5.90861e-011 8.40072e-012
142
root  5.68089 39.0842 -35.7432 4.07874 -62.0512 -5.07186
RightUpLeg  5.52701 -9.67785 -6.88393
RightLeg  12.6378 -16.8404 -5.41476
RightFoot  -12.0979 0.053187 20.2633
RightToes  -5.82094e-011 -1.98785e-016 -5.10186e-018
Spine  14.3069 -0.709223 14.2848
Spine1  -0.5212 3.00551 -6.82626
HEad  -14.9948 40.1332 -22.4711
LeftShoulder1  1.4593 -1.38636 -23.5569
LeftArm  -17.8126 34.4866 -52.2782
LeftForeArm  102.275 -78.086 -39.1694
LeftHand  1.16536 -2.9803 -15.8675
RightShoulder  3.76498 7.44592 28.4275
RightArm  7.79378 -10.0915 42.5617
RightForeArm  30.3392 47.799 10.128
RightHand  -1.9475 9.02818 -15.9202
LeftUpLeg  -17.5894 20.336 5.80793
LeftLeg  32.3177 8.09625 5.84471
LeftFoot  -10.154 0.121225 -5.0892
LeftToes  -8.4584e-011 5.90861e-011 8.40072e-012
143
root  5.41826 39.051 -35.0035 5.34815 -61.707 -5.48622
RightUpLeg  6.06286 -10.5354 -7.83844
RightLeg  11.5228 -16.0966 -4.79859
RightFoot  -11.0645 -0.129216 20.9623
RightToes  -5.82094e-011 -1.98785e-016 -5.10186e-018
Spine  14.1084 -0.700538 13.927
Spine1  -1.27812 2.88234 -6.90712
HEad  -15.35 39.9824 -22.7185
LeftShoulder1  1.13265 -0.37709 -22.8925
LeftArm  -20.4343 35.4046 -51.2197
LeftForeArm  114.173 -80.4619 -53.0105
LeftHand  1.23012 -2.45292 -17.8886
RightShoulder  3.67509 7.15967 28.5113
RightArm  6.01088 -10.5856 42.1105
RightForeArm  27.164 47.8562 10.3854
RightHand  -2.17808 8.87648 -17.9297
LeftUpLeg  -17.9249 23.2141 4.02968
LeftLeg  34.5233 10.6339 8.1238
LeftFoot  -13.8357 -0.0162862 -4.26819
LeftToes  -8.4584e-011 5.90861e-011 8.40072e-012
144
root  5.1061 39.0599 -34.1263 6.35541 -60.3321 -5.88621
RightUpLeg  7.00133 -11.4835 -8.9871
RightLeg  11.0505 -15.8037 -4.24609
RightFoot  -9.18161 -0.502112 23.0489
RightToes  -5.82094e-011 -1.98785e-016 -5.10186e-018
Spine  12.9723 -0.620453 12.4583
Spine1  -0.949648 2.30384 -5.08232
HEad  -15.1011 39.8645 -23.0383
LeftShoulder1  1.17579 -0.566728 -22.5595
LeftArm  -22.8244 34.9621 -49.5915
LeftForeArm  129.704 -81.81 -69.3557
LeftHand  1.11325 -1.66018 -18.0782
RightShoulder  3.51204 6.73942 28.3292
RightArm  4.40542 -12.1014 40.7293
RightForeArm  23.4774 47.0077 10.3248
RightHand  -2.18853 8.93413 -17.9397
LeftUpLeg  -17.0559 25.1836 2.3415
LeftLeg  35.395 12.5412 9.76435
LeftFoot  -16.8099 -0.143339 -5.141
LeftToes  -8.4584e-011 5.90861e-011 8.40072e-012
145
root  4.80219 39.0154 -33.0717 7.18447 -58.2854 -6.4434
RightUpLeg  7.57451 -12.0727 -10.1562
RightLeg  12.4919 -15.4993 -4.28014
RightFoot  -6.54723 -1.10718 25.0217
RightToes  -5.82094e-011 -1.98785e-016 -5.10186e-018
Spine  11.3863 -0.847188 10.7194
Spine1  -0.00619905 1.19722 -2.35748
HEad  -14.4324 40.2776 -23.0834
LeftShoulder1  1.33435 -1.17392 -22.1987
LeftArm  -24.5096 32.5896 -47.9906
LeftForeArm  145.153 -82.2938 -84.9848
LeftHand  0.88833 -0.640857 -17.0984
RightShoulder  3.25961 6.0817 28.0476
RightArm  3.34991 -13.5533 38.6465
RightForeArm  19.3057 44.2055 9.57739
RightHand  -2.2548 9.09655 -18.2632
LeftUpLeg  -14.9574 25.9007 0.971363
LeftLeg  35.2207 13.7339 10.565
LeftFoot  -17.4312 -0.172162 -5.25794
LeftToes  -8.4584e-011 5.90861e-011 8.40072e-012
146
root  4.53188 38.8743 -31.8777 8.71744 -56.0624 -7.80032
RightUpLeg  7.06467 -11.0097 -10.4144
RightLeg  16.2019 -16.7407 -5.68716
RightFoot  -3.16379 -2.14626 28.8119
RightToes  -5.82094e-011 -1.98785e-016 -5.10186e-018
Spine  9.5333 -1.62059 9.62894
Spine1  1.01573 -0.328307 -0.407182
HEad  -13.4117 41.0777 -22.9633
LeftShoulder1  1.46133 -1.79167 -21.1974
LeftArm  -26.9172 29.0066 -48.0368
LeftForeArm  160.828 -82.2872 -98.5833
LeftHand  0.755566 -0.611549 -14.4898
RightShoulder  3.10078 5.67361 27.8228
RightArm  2.52307 -15.3428 36.0846
RightForeArm  16.1708 39.9886 8.36835
RightHand  -2.33811 9.20052 -18.7877
LeftUpLeg  -12.056 25.7111 0.142885
LeftLeg  34.3036 14.0713 10.4665
LeftFoot  -18.3744 -0.277073 -5.99291
LeftToes  -8.4584e-011 5.90861e-011 8.40072e-012
